<mxfile host="Electron" agent="Mozilla/5.0 (Macintosh; Intel Mac OS X 10_15_7) AppleWebKit/537.36 (KHTML, like Gecko) draw.io/24.7.8 Chrome/128.0.6613.36 Electron/32.0.1 Safari/537.36" version="24.7.8">
  <diagram name="Page-1" id="pmLVabs0CMbX-Uy0v6OE">
    <mxGraphModel dx="2008" dy="845" grid="1" gridSize="10" guides="1" tooltips="1" connect="1" arrows="1" fold="1" page="1" pageScale="1" pageWidth="850" pageHeight="1100" math="0" shadow="0">
      <root>
        <mxCell id="0" />
        <mxCell id="1" parent="0" />
        <mxCell id="rtDZ4LokUh9CNXWUBmLv-3" style="edgeStyle=orthogonalEdgeStyle;shape=connector;rounded=0;orthogonalLoop=1;jettySize=auto;html=1;exitX=0.75;exitY=1;exitDx=0;exitDy=0;entryX=0.5;entryY=0;entryDx=0;entryDy=0;strokeColor=#00FF00;strokeWidth=2;align=center;verticalAlign=middle;fontFamily=Helvetica;fontSize=11;fontColor=default;labelBackgroundColor=default;endArrow=classic;flowAnimation=1;" edge="1" parent="1" source="uw4OTgvuskThHRHjsoGc-1" target="uw4OTgvuskThHRHjsoGc-12">
          <mxGeometry relative="1" as="geometry" />
        </mxCell>
        <mxCell id="rtDZ4LokUh9CNXWUBmLv-1" style="edgeStyle=orthogonalEdgeStyle;shape=connector;rounded=0;orthogonalLoop=1;jettySize=auto;html=1;exitX=0.25;exitY=1;exitDx=0;exitDy=0;entryX=0.25;entryY=0;entryDx=0;entryDy=0;strokeColor=#00FF80;strokeWidth=2;align=center;verticalAlign=middle;fontFamily=Helvetica;fontSize=11;fontColor=default;labelBackgroundColor=default;endArrow=classic;flowAnimation=1;" edge="1" parent="1" source="uw4OTgvuskThHRHjsoGc-2" target="uw4OTgvuskThHRHjsoGc-12">
          <mxGeometry relative="1" as="geometry" />
        </mxCell>
        <mxCell id="rtDZ4LokUh9CNXWUBmLv-2" style="edgeStyle=orthogonalEdgeStyle;shape=connector;rounded=0;orthogonalLoop=1;jettySize=auto;html=1;exitX=0.25;exitY=1;exitDx=0;exitDy=0;entryX=0.75;entryY=0;entryDx=0;entryDy=0;strokeColor=#00FF80;strokeWidth=2;align=center;verticalAlign=middle;fontFamily=Helvetica;fontSize=11;fontColor=default;labelBackgroundColor=default;endArrow=classic;flowAnimation=1;" edge="1" parent="1" source="uw4OTgvuskThHRHjsoGc-11" target="uw4OTgvuskThHRHjsoGc-12">
          <mxGeometry relative="1" as="geometry" />
        </mxCell>
        <mxCell id="uw4OTgvuskThHRHjsoGc-1" value="Developer Control Plane" style="rounded=1;whiteSpace=wrap;html=1;shadow=1;sketch=1;curveFitting=1;jiggle=2;fontFamily=Gloria Hallelujah;fontSource=https%3A%2F%2Ffonts.googleapis.com%2Fcss%3Ffamily%3DGloria%2BHallelujah;fontSize=16;verticalAlign=bottom;fillColor=none;" parent="1" vertex="1">
          <mxGeometry x="140" y="200" width="490" height="190" as="geometry" />
        </mxCell>
        <mxCell id="uw4OTgvuskThHRHjsoGc-2" value="Integration &amp;amp; Delivery Plane&lt;div&gt;(a.k.a DevOps/DevSecOps Pipline)&lt;/div&gt;" style="rounded=1;whiteSpace=wrap;html=1;shadow=1;sketch=1;curveFitting=1;jiggle=2;fontFamily=Gloria Hallelujah;fontSource=https%3A%2F%2Ffonts.googleapis.com%2Fcss%3Ffamily%3DGloria%2BHallelujah;fontSize=16;verticalAlign=bottom;fillColor=none;" parent="1" vertex="1">
          <mxGeometry x="140" y="440" width="490" height="180" as="geometry" />
        </mxCell>
        <mxCell id="uw4OTgvuskThHRHjsoGc-4" value="IDE" style="rounded=1;whiteSpace=wrap;html=1;shadow=1;sketch=1;curveFitting=1;jiggle=2;fontFamily=Gloria Hallelujah;fontSource=https%3A%2F%2Ffonts.googleapis.com%2Fcss%3Ffamily%3DGloria%2BHallelujah;fontSize=16;verticalAlign=middle;" parent="1" vertex="1">
          <mxGeometry x="170" y="230" width="130" height="40" as="geometry" />
        </mxCell>
        <mxCell id="uw4OTgvuskThHRHjsoGc-5" value="IDP&lt;br&gt;(Internal Developer Portal)" style="rounded=1;whiteSpace=wrap;html=1;shadow=1;sketch=1;curveFitting=1;jiggle=2;fontFamily=Gloria Hallelujah;fontSource=https%3A%2F%2Ffonts.googleapis.com%2Fcss%3Ffamily%3DGloria%2BHallelujah;fontSize=16;verticalAlign=middle;" parent="1" vertex="1">
          <mxGeometry x="330" y="230" width="270" height="70" as="geometry" />
        </mxCell>
        <mxCell id="uw4OTgvuskThHRHjsoGc-20" style="edgeStyle=orthogonalEdgeStyle;shape=connector;rounded=0;orthogonalLoop=1;jettySize=auto;html=1;exitX=0.5;exitY=1;exitDx=0;exitDy=0;exitPerimeter=0;entryX=0.5;entryY=0;entryDx=0;entryDy=0;strokeColor=#FF00FF;strokeWidth=2;align=center;verticalAlign=middle;fontFamily=Helvetica;fontSize=11;fontColor=default;labelBackgroundColor=default;endArrow=classic;flowAnimation=1;" parent="1" source="uw4OTgvuskThHRHjsoGc-6" target="uw4OTgvuskThHRHjsoGc-13" edge="1">
          <mxGeometry relative="1" as="geometry" />
        </mxCell>
        <mxCell id="uw4OTgvuskThHRHjsoGc-6" value="VCS" style="shape=cylinder3;whiteSpace=wrap;html=1;boundedLbl=1;backgroundOutline=1;size=15;sketch=1;curveFitting=1;jiggle=2;fontFamily=Gloria Hallelujah;fontSource=https%3A%2F%2Ffonts.googleapis.com%2Fcss%3Ffamily%3DGloria%2BHallelujah;fontSize=16;" parent="1" vertex="1">
          <mxGeometry x="190" y="300" width="90" height="70" as="geometry" />
        </mxCell>
        <mxCell id="uw4OTgvuskThHRHjsoGc-7" style="edgeStyle=orthogonalEdgeStyle;rounded=0;orthogonalLoop=1;jettySize=auto;html=1;exitX=0.5;exitY=1;exitDx=0;exitDy=0;entryX=0.5;entryY=0;entryDx=0;entryDy=0;entryPerimeter=0;flowAnimation=1;strokeWidth=2;strokeColor=#7F00FF;" parent="1" source="uw4OTgvuskThHRHjsoGc-4" target="uw4OTgvuskThHRHjsoGc-6" edge="1">
          <mxGeometry relative="1" as="geometry" />
        </mxCell>
        <mxCell id="uw4OTgvuskThHRHjsoGc-8" style="edgeStyle=orthogonalEdgeStyle;rounded=0;orthogonalLoop=1;jettySize=auto;html=1;exitX=0.5;exitY=1;exitDx=0;exitDy=0;entryX=1;entryY=0.5;entryDx=0;entryDy=0;entryPerimeter=0;flowAnimation=1;strokeWidth=2;strokeColor=#FF00FF;" parent="1" source="uw4OTgvuskThHRHjsoGc-5" target="uw4OTgvuskThHRHjsoGc-6" edge="1">
          <mxGeometry relative="1" as="geometry" />
        </mxCell>
        <mxCell id="uw4OTgvuskThHRHjsoGc-10" value="Monitoring &amp;amp; Logging Plane" style="rounded=1;whiteSpace=wrap;html=1;shadow=1;sketch=1;curveFitting=1;jiggle=2;fontFamily=Gloria Hallelujah;fontSource=https%3A%2F%2Ffonts.googleapis.com%2Fcss%3Ffamily%3DGloria%2BHallelujah;fontSize=16;verticalAlign=bottom;fillColor=none;" parent="1" vertex="1">
          <mxGeometry x="140" y="660" width="760" height="230" as="geometry" />
        </mxCell>
        <mxCell id="uw4OTgvuskThHRHjsoGc-49" style="edgeStyle=orthogonalEdgeStyle;shape=connector;rounded=0;orthogonalLoop=1;jettySize=auto;html=1;exitX=0.5;exitY=1;exitDx=0;exitDy=0;entryX=0.5;entryY=0;entryDx=0;entryDy=0;strokeColor=#00FFFF;strokeWidth=2;align=center;verticalAlign=middle;fontFamily=Helvetica;fontSize=11;fontColor=default;labelBackgroundColor=default;endArrow=classic;flowAnimation=1;" parent="1" source="uw4OTgvuskThHRHjsoGc-11" target="uw4OTgvuskThHRHjsoGc-28" edge="1">
          <mxGeometry relative="1" as="geometry" />
        </mxCell>
        <mxCell id="uw4OTgvuskThHRHjsoGc-11" value="Resource Plane" style="rounded=1;whiteSpace=wrap;html=1;shadow=1;sketch=1;curveFitting=1;jiggle=2;fontFamily=Gloria Hallelujah;fontSource=https%3A%2F%2Ffonts.googleapis.com%2Fcss%3Ffamily%3DGloria%2BHallelujah;fontSize=16;verticalAlign=bottom;fillColor=none;" parent="1" vertex="1">
          <mxGeometry x="670" y="330" width="230" height="290" as="geometry" />
        </mxCell>
        <mxCell id="uw4OTgvuskThHRHjsoGc-12" value="Security Plane" style="rounded=1;whiteSpace=wrap;html=1;shadow=1;sketch=1;curveFitting=1;jiggle=2;fontFamily=Gloria Hallelujah;fontSource=https%3A%2F%2Ffonts.googleapis.com%2Fcss%3Ffamily%3DGloria%2BHallelujah;fontSize=16;verticalAlign=bottom;fillColor=none;" parent="1" vertex="1">
          <mxGeometry x="140" y="940" width="760" height="240" as="geometry" />
        </mxCell>
        <mxCell id="uw4OTgvuskThHRHjsoGc-21" style="edgeStyle=orthogonalEdgeStyle;shape=connector;rounded=0;orthogonalLoop=1;jettySize=auto;html=1;exitX=1;exitY=0.5;exitDx=0;exitDy=0;entryX=0;entryY=0.5;entryDx=0;entryDy=0;strokeColor=#FF00FF;strokeWidth=2;align=center;verticalAlign=middle;fontFamily=Helvetica;fontSize=11;fontColor=default;labelBackgroundColor=default;endArrow=classic;flowAnimation=1;" parent="1" source="uw4OTgvuskThHRHjsoGc-13" target="uw4OTgvuskThHRHjsoGc-14" edge="1">
          <mxGeometry relative="1" as="geometry" />
        </mxCell>
        <mxCell id="uw4OTgvuskThHRHjsoGc-13" value="Code&lt;div&gt;Checkout&lt;/div&gt;" style="rounded=1;whiteSpace=wrap;html=1;shadow=1;sketch=1;curveFitting=1;jiggle=2;fontFamily=Gloria Hallelujah;fontSource=https%3A%2F%2Ffonts.googleapis.com%2Fcss%3Ffamily%3DGloria%2BHallelujah;fontSize=16;verticalAlign=middle;" parent="1" vertex="1">
          <mxGeometry x="170" y="480" width="90" height="70" as="geometry" />
        </mxCell>
        <mxCell id="uw4OTgvuskThHRHjsoGc-22" style="edgeStyle=orthogonalEdgeStyle;shape=connector;rounded=0;orthogonalLoop=1;jettySize=auto;html=1;exitX=1;exitY=0.5;exitDx=0;exitDy=0;entryX=0;entryY=0.5;entryDx=0;entryDy=0;strokeColor=#FF00FF;strokeWidth=2;align=center;verticalAlign=middle;fontFamily=Helvetica;fontSize=11;fontColor=default;labelBackgroundColor=default;endArrow=classic;flowAnimation=1;" parent="1" source="uw4OTgvuskThHRHjsoGc-14" target="uw4OTgvuskThHRHjsoGc-15" edge="1">
          <mxGeometry relative="1" as="geometry" />
        </mxCell>
        <mxCell id="uw4OTgvuskThHRHjsoGc-14" value="Build" style="rounded=1;whiteSpace=wrap;html=1;shadow=1;sketch=1;curveFitting=1;jiggle=2;fontFamily=Gloria Hallelujah;fontSource=https%3A%2F%2Ffonts.googleapis.com%2Fcss%3Ffamily%3DGloria%2BHallelujah;fontSize=16;verticalAlign=middle;" parent="1" vertex="1">
          <mxGeometry x="280" y="480" width="90" height="70" as="geometry" />
        </mxCell>
        <mxCell id="uw4OTgvuskThHRHjsoGc-23" style="edgeStyle=orthogonalEdgeStyle;shape=connector;rounded=0;orthogonalLoop=1;jettySize=auto;html=1;exitX=1;exitY=0.5;exitDx=0;exitDy=0;entryX=0;entryY=0.5;entryDx=0;entryDy=0;strokeColor=#FF00FF;strokeWidth=2;align=center;verticalAlign=middle;fontFamily=Helvetica;fontSize=11;fontColor=default;labelBackgroundColor=default;endArrow=classic;flowAnimation=1;" parent="1" source="uw4OTgvuskThHRHjsoGc-15" target="uw4OTgvuskThHRHjsoGc-16" edge="1">
          <mxGeometry relative="1" as="geometry" />
        </mxCell>
        <mxCell id="uw4OTgvuskThHRHjsoGc-15" value="Test" style="rounded=1;whiteSpace=wrap;html=1;shadow=1;sketch=1;curveFitting=1;jiggle=2;fontFamily=Gloria Hallelujah;fontSource=https%3A%2F%2Ffonts.googleapis.com%2Fcss%3Ffamily%3DGloria%2BHallelujah;fontSize=16;verticalAlign=middle;" parent="1" vertex="1">
          <mxGeometry x="390" y="480" width="90" height="70" as="geometry" />
        </mxCell>
        <mxCell id="uw4OTgvuskThHRHjsoGc-24" style="edgeStyle=orthogonalEdgeStyle;shape=connector;rounded=0;orthogonalLoop=1;jettySize=auto;html=1;exitX=1;exitY=0.25;exitDx=0;exitDy=0;entryX=0;entryY=0.5;entryDx=0;entryDy=0;strokeColor=#FF00FF;strokeWidth=2;align=center;verticalAlign=middle;fontFamily=Helvetica;fontSize=11;fontColor=default;labelBackgroundColor=default;endArrow=classic;flowAnimation=1;" parent="1" source="uw4OTgvuskThHRHjsoGc-16" target="uw4OTgvuskThHRHjsoGc-17" edge="1">
          <mxGeometry relative="1" as="geometry" />
        </mxCell>
        <mxCell id="uw4OTgvuskThHRHjsoGc-25" style="edgeStyle=orthogonalEdgeStyle;shape=connector;rounded=0;orthogonalLoop=1;jettySize=auto;html=1;exitX=1;exitY=0.5;exitDx=0;exitDy=0;entryX=0;entryY=0.5;entryDx=0;entryDy=0;strokeColor=#FF00FF;strokeWidth=2;align=center;verticalAlign=middle;fontFamily=Helvetica;fontSize=11;fontColor=default;labelBackgroundColor=default;endArrow=classic;flowAnimation=1;" parent="1" source="uw4OTgvuskThHRHjsoGc-16" target="uw4OTgvuskThHRHjsoGc-18" edge="1">
          <mxGeometry relative="1" as="geometry">
            <Array as="points">
              <mxPoint x="660" y="515" />
              <mxPoint x="660" y="470" />
            </Array>
          </mxGeometry>
        </mxCell>
        <mxCell id="uw4OTgvuskThHRHjsoGc-26" style="edgeStyle=orthogonalEdgeStyle;shape=connector;rounded=0;orthogonalLoop=1;jettySize=auto;html=1;exitX=1;exitY=0.75;exitDx=0;exitDy=0;entryX=0;entryY=0.5;entryDx=0;entryDy=0;strokeColor=#FF00FF;strokeWidth=2;align=center;verticalAlign=middle;fontFamily=Helvetica;fontSize=11;fontColor=default;labelBackgroundColor=default;endArrow=classic;flowAnimation=1;" parent="1" source="uw4OTgvuskThHRHjsoGc-16" target="uw4OTgvuskThHRHjsoGc-19" edge="1">
          <mxGeometry relative="1" as="geometry" />
        </mxCell>
        <mxCell id="uw4OTgvuskThHRHjsoGc-16" value="Deploy" style="rounded=1;whiteSpace=wrap;html=1;shadow=1;sketch=1;curveFitting=1;jiggle=2;fontFamily=Gloria Hallelujah;fontSource=https%3A%2F%2Ffonts.googleapis.com%2Fcss%3Ffamily%3DGloria%2BHallelujah;fontSize=16;verticalAlign=middle;" parent="1" vertex="1">
          <mxGeometry x="500" y="480" width="90" height="70" as="geometry" />
        </mxCell>
        <mxCell id="uw4OTgvuskThHRHjsoGc-17" value="k8s / Serverless" style="rounded=1;whiteSpace=wrap;html=1;shadow=1;sketch=1;curveFitting=1;jiggle=2;fontFamily=Gloria Hallelujah;fontSource=https%3A%2F%2Ffonts.googleapis.com%2Fcss%3Ffamily%3DGloria%2BHallelujah;fontSize=16;verticalAlign=middle;" parent="1" vertex="1">
          <mxGeometry x="700" y="360" width="170" height="60" as="geometry" />
        </mxCell>
        <mxCell id="uw4OTgvuskThHRHjsoGc-18" value="Cache / SQL" style="rounded=1;whiteSpace=wrap;html=1;shadow=1;sketch=1;curveFitting=1;jiggle=2;fontFamily=Gloria Hallelujah;fontSource=https%3A%2F%2Ffonts.googleapis.com%2Fcss%3Ffamily%3DGloria%2BHallelujah;fontSize=16;verticalAlign=middle;" parent="1" vertex="1">
          <mxGeometry x="700" y="440" width="170" height="60" as="geometry" />
        </mxCell>
        <mxCell id="uw4OTgvuskThHRHjsoGc-19" value="Event Topics" style="rounded=1;whiteSpace=wrap;html=1;shadow=1;sketch=1;curveFitting=1;jiggle=2;fontFamily=Gloria Hallelujah;fontSource=https%3A%2F%2Ffonts.googleapis.com%2Fcss%3Ffamily%3DGloria%2BHallelujah;fontSize=16;verticalAlign=middle;" parent="1" vertex="1">
          <mxGeometry x="700" y="520" width="170" height="60" as="geometry" />
        </mxCell>
        <mxCell id="uw4OTgvuskThHRHjsoGc-28" value="SRE Metrics" style="rounded=1;whiteSpace=wrap;html=1;shadow=1;sketch=1;curveFitting=1;jiggle=2;fontFamily=Gloria Hallelujah;fontSource=https%3A%2F%2Ffonts.googleapis.com%2Fcss%3Ffamily%3DGloria%2BHallelujah;fontSize=16;verticalAlign=top;align=center;fillColor=none;" parent="1" vertex="1">
          <mxGeometry x="640" y="680" width="230" height="130" as="geometry" />
        </mxCell>
        <mxCell id="uw4OTgvuskThHRHjsoGc-29" value="DevOps Metrics" style="rounded=1;whiteSpace=wrap;html=1;shadow=1;sketch=1;curveFitting=1;jiggle=2;fontFamily=Gloria Hallelujah;fontSource=https%3A%2F%2Ffonts.googleapis.com%2Fcss%3Ffamily%3DGloria%2BHallelujah;fontSize=16;verticalAlign=top;align=center;fillColor=none;" parent="1" vertex="1">
          <mxGeometry x="170" y="680" width="450" height="170" as="geometry" />
        </mxCell>
        <mxCell id="uw4OTgvuskThHRHjsoGc-30" value="Security Metrics" style="rounded=1;whiteSpace=wrap;html=1;shadow=1;sketch=1;curveFitting=1;jiggle=2;fontFamily=Gloria Hallelujah;fontSource=https%3A%2F%2Ffonts.googleapis.com%2Fcss%3Ffamily%3DGloria%2BHallelujah;fontSize=16;verticalAlign=top;align=center;fillColor=none;" parent="1" vertex="1">
          <mxGeometry x="170" y="960" width="560" height="170" as="geometry" />
        </mxCell>
        <mxCell id="uw4OTgvuskThHRHjsoGc-31" value="Deployment Frequency" style="rounded=1;whiteSpace=wrap;html=1;shadow=1;sketch=1;curveFitting=1;jiggle=2;fontFamily=Gloria Hallelujah;fontSource=https%3A%2F%2Ffonts.googleapis.com%2Fcss%3Ffamily%3DGloria%2BHallelujah;fontSize=16;verticalAlign=middle;" parent="1" vertex="1">
          <mxGeometry x="190" y="745" width="125" height="40" as="geometry" />
        </mxCell>
        <mxCell id="uw4OTgvuskThHRHjsoGc-32" value="Lead Time For Changes" style="rounded=1;whiteSpace=wrap;html=1;shadow=1;sketch=1;curveFitting=1;jiggle=2;fontFamily=Gloria Hallelujah;fontSource=https%3A%2F%2Ffonts.googleapis.com%2Fcss%3Ffamily%3DGloria%2BHallelujah;fontSize=16;verticalAlign=middle;" parent="1" vertex="1">
          <mxGeometry x="332.5" y="742.5" width="125" height="45" as="geometry" />
        </mxCell>
        <mxCell id="uw4OTgvuskThHRHjsoGc-33" value="Change Failure Rate" style="rounded=1;whiteSpace=wrap;html=1;shadow=1;sketch=1;curveFitting=1;jiggle=2;fontFamily=Gloria Hallelujah;fontSource=https%3A%2F%2Ffonts.googleapis.com%2Fcss%3Ffamily%3DGloria%2BHallelujah;fontSize=16;verticalAlign=middle;" parent="1" vertex="1">
          <mxGeometry x="190" y="800" width="170" height="30" as="geometry" />
        </mxCell>
        <mxCell id="uw4OTgvuskThHRHjsoGc-34" value="Mean Time to Recovery (MTTR)" style="rounded=1;whiteSpace=wrap;html=1;shadow=1;sketch=1;curveFitting=1;jiggle=2;fontFamily=Gloria Hallelujah;fontSource=https%3A%2F%2Ffonts.googleapis.com%2Fcss%3Ffamily%3DGloria%2BHallelujah;fontSize=16;verticalAlign=middle;" parent="1" vertex="1">
          <mxGeometry x="470" y="717.5" width="130" height="70" as="geometry" />
        </mxCell>
        <mxCell id="uw4OTgvuskThHRHjsoGc-41" value="Latency" style="rounded=1;whiteSpace=wrap;html=1;shadow=1;sketch=1;curveFitting=1;jiggle=2;fontFamily=Gloria Hallelujah;fontSource=https%3A%2F%2Ffonts.googleapis.com%2Fcss%3Ffamily%3DGloria%2BHallelujah;fontSize=16;verticalAlign=middle;" parent="1" vertex="1">
          <mxGeometry x="660" y="720" width="90" height="30" as="geometry" />
        </mxCell>
        <mxCell id="uw4OTgvuskThHRHjsoGc-42" value="Traffic" style="rounded=1;whiteSpace=wrap;html=1;shadow=1;sketch=1;curveFitting=1;jiggle=2;fontFamily=Gloria Hallelujah;fontSource=https%3A%2F%2Ffonts.googleapis.com%2Fcss%3Ffamily%3DGloria%2BHallelujah;fontSize=16;verticalAlign=middle;" parent="1" vertex="1">
          <mxGeometry x="760" y="720" width="90" height="30" as="geometry" />
        </mxCell>
        <mxCell id="uw4OTgvuskThHRHjsoGc-43" value="Errors" style="rounded=1;whiteSpace=wrap;html=1;shadow=1;sketch=1;curveFitting=1;jiggle=2;fontFamily=Gloria Hallelujah;fontSource=https%3A%2F%2Ffonts.googleapis.com%2Fcss%3Ffamily%3DGloria%2BHallelujah;fontSize=16;verticalAlign=middle;" parent="1" vertex="1">
          <mxGeometry x="770" y="760" width="90" height="30" as="geometry" />
        </mxCell>
        <mxCell id="uw4OTgvuskThHRHjsoGc-44" value="Saturation" style="rounded=1;whiteSpace=wrap;html=1;shadow=1;sketch=1;curveFitting=1;jiggle=2;fontFamily=Gloria Hallelujah;fontSource=https%3A%2F%2Ffonts.googleapis.com%2Fcss%3Ffamily%3DGloria%2BHallelujah;fontSize=16;verticalAlign=middle;" parent="1" vertex="1">
          <mxGeometry x="660" y="760" width="100" height="30" as="geometry" />
        </mxCell>
        <mxCell id="uw4OTgvuskThHRHjsoGc-45" value="Customer Satisfaction" style="rounded=1;whiteSpace=wrap;html=1;shadow=1;sketch=1;curveFitting=1;jiggle=2;fontFamily=Gloria Hallelujah;fontSource=https%3A%2F%2Ffonts.googleapis.com%2Fcss%3Ffamily%3DGloria%2BHallelujah;fontSize=16;verticalAlign=middle;" parent="1" vertex="1">
          <mxGeometry x="380" y="800" width="220" height="30" as="geometry" />
        </mxCell>
        <mxCell id="uw4OTgvuskThHRHjsoGc-47" value="Uptime" style="rounded=1;whiteSpace=wrap;html=1;shadow=1;sketch=1;curveFitting=1;jiggle=2;fontFamily=Gloria Hallelujah;fontSource=https%3A%2F%2Ffonts.googleapis.com%2Fcss%3Ffamily%3DGloria%2BHallelujah;fontSize=16;verticalAlign=middle;" parent="1" vertex="1">
          <mxGeometry x="190" y="710" width="70" height="20" as="geometry" />
        </mxCell>
        <mxCell id="uw4OTgvuskThHRHjsoGc-48" style="edgeStyle=orthogonalEdgeStyle;shape=connector;rounded=0;orthogonalLoop=1;jettySize=auto;html=1;exitX=0.5;exitY=1;exitDx=0;exitDy=0;strokeColor=#00FFFF;strokeWidth=2;align=center;verticalAlign=middle;fontFamily=Helvetica;fontSize=11;fontColor=default;labelBackgroundColor=default;endArrow=classic;flowAnimation=1;" parent="1" source="uw4OTgvuskThHRHjsoGc-2" target="uw4OTgvuskThHRHjsoGc-29" edge="1">
          <mxGeometry relative="1" as="geometry" />
        </mxCell>
        <mxCell id="uw4OTgvuskThHRHjsoGc-50" value="XDR" style="rounded=1;whiteSpace=wrap;html=1;shadow=1;sketch=1;curveFitting=1;jiggle=2;fontFamily=Gloria Hallelujah;fontSource=https%3A%2F%2Ffonts.googleapis.com%2Fcss%3Ffamily%3DGloria%2BHallelujah;fontSize=16;verticalAlign=middle;align=center;" parent="1" vertex="1">
          <mxGeometry x="760" y="1075" width="110" height="40" as="geometry" />
        </mxCell>
        <mxCell id="uw4OTgvuskThHRHjsoGc-51" value="SOAR" style="rounded=1;whiteSpace=wrap;html=1;shadow=1;sketch=1;curveFitting=1;jiggle=2;fontFamily=Gloria Hallelujah;fontSource=https%3A%2F%2Ffonts.googleapis.com%2Fcss%3Ffamily%3DGloria%2BHallelujah;fontSize=16;verticalAlign=middle;align=center;" parent="1" vertex="1">
          <mxGeometry x="760" y="975" width="110" height="40" as="geometry" />
        </mxCell>
        <mxCell id="uw4OTgvuskThHRHjsoGc-52" value="SIEM" style="rounded=1;whiteSpace=wrap;html=1;shadow=1;sketch=1;curveFitting=1;jiggle=2;fontFamily=Gloria Hallelujah;fontSource=https%3A%2F%2Ffonts.googleapis.com%2Fcss%3Ffamily%3DGloria%2BHallelujah;fontSize=16;verticalAlign=middle;align=center;" parent="1" vertex="1">
          <mxGeometry x="760" y="1025" width="110" height="40" as="geometry" />
        </mxCell>
        <mxCell id="uw4OTgvuskThHRHjsoGc-53" value="&lt;div&gt;Mean Time to Detect (MTTD)&lt;/div&gt;" style="rounded=1;whiteSpace=wrap;html=1;shadow=1;sketch=1;curveFitting=1;jiggle=2;fontFamily=Gloria Hallelujah;fontSource=https%3A%2F%2Ffonts.googleapis.com%2Fcss%3Ffamily%3DGloria%2BHallelujah;fontSize=16;verticalAlign=middle;align=center;" parent="1" vertex="1">
          <mxGeometry x="190" y="1000" width="110" height="60" as="geometry" />
        </mxCell>
        <mxCell id="uw4OTgvuskThHRHjsoGc-54" value="&lt;div&gt;Mean Time to Respond (MTTR)&lt;/div&gt;" style="rounded=1;whiteSpace=wrap;html=1;shadow=1;sketch=1;curveFitting=1;jiggle=2;fontFamily=Gloria Hallelujah;fontSource=https%3A%2F%2Ffonts.googleapis.com%2Fcss%3Ffamily%3DGloria%2BHallelujah;fontSize=16;verticalAlign=middle;align=center;" parent="1" vertex="1">
          <mxGeometry x="315" y="1000" width="110" height="60" as="geometry" />
        </mxCell>
        <mxCell id="uw4OTgvuskThHRHjsoGc-55" value="&lt;div&gt;Number of Security Incidents&lt;/div&gt;" style="rounded=1;whiteSpace=wrap;html=1;shadow=1;sketch=1;curveFitting=1;jiggle=2;fontFamily=Gloria Hallelujah;fontSource=https%3A%2F%2Ffonts.googleapis.com%2Fcss%3Ffamily%3DGloria%2BHallelujah;fontSize=16;verticalAlign=middle;align=center;" parent="1" vertex="1">
          <mxGeometry x="190" y="1070" width="192.5" height="50" as="geometry" />
        </mxCell>
        <mxCell id="uw4OTgvuskThHRHjsoGc-56" value="&lt;div&gt;Incident Response Metrics&lt;/div&gt;" style="rounded=1;whiteSpace=wrap;html=1;shadow=1;sketch=1;curveFitting=1;jiggle=2;fontFamily=Gloria Hallelujah;fontSource=https%3A%2F%2Ffonts.googleapis.com%2Fcss%3Ffamily%3DGloria%2BHallelujah;fontSize=16;verticalAlign=middle;align=center;" parent="1" vertex="1">
          <mxGeometry x="397.5" y="1070" width="192.5" height="50" as="geometry" />
        </mxCell>
        <mxCell id="uw4OTgvuskThHRHjsoGc-57" value="&lt;div&gt;Unauthorized Access Attempts&lt;/div&gt;" style="rounded=1;whiteSpace=wrap;html=1;shadow=1;sketch=1;curveFitting=1;jiggle=2;fontFamily=Gloria Hallelujah;fontSource=https%3A%2F%2Ffonts.googleapis.com%2Fcss%3Ffamily%3DGloria%2BHallelujah;fontSize=16;verticalAlign=middle;align=center;" parent="1" vertex="1">
          <mxGeometry x="438.75" y="1000" width="151.25" height="60" as="geometry" />
        </mxCell>
        <mxCell id="uw4OTgvuskThHRHjsoGc-58" value="&lt;div&gt;Vulnerability Management&lt;/div&gt;" style="rounded=1;whiteSpace=wrap;html=1;shadow=1;sketch=1;curveFitting=1;jiggle=2;fontFamily=Gloria Hallelujah;fontSource=https%3A%2F%2Ffonts.googleapis.com%2Fcss%3Ffamily%3DGloria%2BHallelujah;fontSize=16;verticalAlign=middle;align=center;" parent="1" vertex="1">
          <mxGeometry x="600" y="1000" width="110" height="120" as="geometry" />
        </mxCell>
        <mxCell id="uw4OTgvuskThHRHjsoGc-59" value="Platform Engineers" style="shape=umlActor;verticalLabelPosition=bottom;verticalAlign=top;html=1;outlineConnect=0;fontFamily=Gloria Hallelujah;fontSize=16;fontColor=default;labelBackgroundColor=default;sketch=1;curveFitting=1;jiggle=2;fontSource=https%3A%2F%2Ffonts.googleapis.com%2Fcss%3Ffamily%3DGloria%2BHallelujah;" parent="1" vertex="1">
          <mxGeometry x="-30" y="760" width="30" height="60" as="geometry" />
        </mxCell>
        <mxCell id="uw4OTgvuskThHRHjsoGc-61" style="edgeStyle=orthogonalEdgeStyle;shape=connector;rounded=0;orthogonalLoop=1;jettySize=auto;html=1;strokeColor=#7F00FF;strokeWidth=2;align=center;verticalAlign=middle;fontFamily=Helvetica;fontSize=11;fontColor=default;labelBackgroundColor=default;endArrow=classic;flowAnimation=1;exitX=0;exitY=0.3333333333333333;exitDx=0;exitDy=0;exitPerimeter=0;" parent="1" source="uw4OTgvuskThHRHjsoGc-60" target="uw4OTgvuskThHRHjsoGc-4" edge="1">
          <mxGeometry relative="1" as="geometry" />
        </mxCell>
        <mxCell id="uw4OTgvuskThHRHjsoGc-62" style="edgeStyle=orthogonalEdgeStyle;shape=connector;rounded=0;orthogonalLoop=1;jettySize=auto;html=1;entryX=0.5;entryY=0;entryDx=0;entryDy=0;strokeColor=#7F00FF;strokeWidth=2;align=center;verticalAlign=middle;fontFamily=Helvetica;fontSize=11;fontColor=default;labelBackgroundColor=default;endArrow=classic;flowAnimation=1;exitX=1;exitY=0.3333333333333333;exitDx=0;exitDy=0;exitPerimeter=0;" parent="1" source="uw4OTgvuskThHRHjsoGc-60" target="uw4OTgvuskThHRHjsoGc-5" edge="1">
          <mxGeometry relative="1" as="geometry" />
        </mxCell>
        <mxCell id="uw4OTgvuskThHRHjsoGc-60" value="Developers" style="shape=umlActor;verticalLabelPosition=bottom;verticalAlign=top;html=1;outlineConnect=0;fontFamily=Gloria Hallelujah;fontSize=16;fontColor=default;labelBackgroundColor=default;sketch=1;curveFitting=1;jiggle=2;fontSource=https%3A%2F%2Ffonts.googleapis.com%2Fcss%3Ffamily%3DGloria%2BHallelujah;" parent="1" vertex="1">
          <mxGeometry x="315" y="70" width="30" height="60" as="geometry" />
        </mxCell>
        <mxCell id="uw4OTgvuskThHRHjsoGc-65" value="" style="shape=curlyBracket;whiteSpace=wrap;html=1;rounded=1;labelPosition=left;verticalLabelPosition=middle;align=right;verticalAlign=middle;strokeColor=default;fontFamily=Helvetica;fontSize=11;fontColor=default;labelBackgroundColor=default;fillColor=default;strokeWidth=2;" parent="1" vertex="1">
          <mxGeometry x="80" y="440" width="20" height="740" as="geometry" />
        </mxCell>
        <mxCell id="uw4OTgvuskThHRHjsoGc-68" value="" style="shape=image;verticalLabelPosition=bottom;labelBackgroundColor=default;verticalAlign=top;aspect=fixed;imageAspect=0;image=https://www.helenjoscott.com/wp-content/uploads/2020/09/1200px-IntelliJ_IDEA_Logo.png;" parent="1" vertex="1">
          <mxGeometry x="120" y="180" width="80" height="80" as="geometry" />
        </mxCell>
        <mxCell id="uw4OTgvuskThHRHjsoGc-70" value="" style="shape=image;verticalLabelPosition=bottom;labelBackgroundColor=default;verticalAlign=top;aspect=fixed;imageAspect=0;image=https://upload.wikimedia.org/wikipedia/commons/thumb/e/e9/Jenkins_logo.svg/1483px-Jenkins_logo.svg.png;" parent="1" vertex="1">
          <mxGeometry x="123.79000000000002" y="530" width="72.42" height="100" as="geometry" />
        </mxCell>
        <mxCell id="uw4OTgvuskThHRHjsoGc-72" value="" style="shape=image;imageAspect=0;aspect=fixed;verticalLabelPosition=bottom;verticalAlign=top;strokeColor=default;align=center;fontFamily=Helvetica;fontSize=11;fontColor=default;labelBackgroundColor=default;fillColor=default;image=https://camo.githubusercontent.com/fa46a7608ab776ac1e71c7be0696a824f295813d21f75475e11488216c2dcf1c/68747470733a2f2f7265646861742d7363686f6c6172732e6769746875622e696f2f6172676f63642d7475746f7269616c2f6172676f63642d7475746f7269616c2f5f696d616765732f6172676f63642d6c6f676f2e706e67;" parent="1" vertex="1">
          <mxGeometry x="530" y="500" width="120" height="120" as="geometry" />
        </mxCell>
        <mxCell id="uw4OTgvuskThHRHjsoGc-73" value="" style="shape=image;verticalLabelPosition=bottom;labelBackgroundColor=default;verticalAlign=top;aspect=fixed;imageAspect=0;image=https://upload.wikimedia.org/wikipedia/commons/3/39/Kubernetes_logo_without_workmark.svg;" parent="1" vertex="1">
          <mxGeometry x="860" y="370" width="61.79" height="60" as="geometry" />
        </mxCell>
        <mxCell id="uw4OTgvuskThHRHjsoGc-74" value="" style="shape=image;verticalLabelPosition=bottom;labelBackgroundColor=default;verticalAlign=top;aspect=fixed;imageAspect=0;image=https://static-00.iconduck.com/assets.00/harbor-icon-2034x2048-hl34ycc9.png;" parent="1" vertex="1">
          <mxGeometry x="830" y="310" width="59.6" height="60" as="geometry" />
        </mxCell>
        <mxCell id="uw4OTgvuskThHRHjsoGc-76" value="" style="shape=image;verticalLabelPosition=bottom;labelBackgroundColor=default;verticalAlign=top;aspect=fixed;imageAspect=0;image=https://cdn4.iconfinder.com/data/icons/redis-2/1451/Untitled-2-512.png;" parent="1" vertex="1">
          <mxGeometry x="860" y="444" width="62" height="62" as="geometry" />
        </mxCell>
        <mxCell id="uw4OTgvuskThHRHjsoGc-77" value="" style="shape=image;verticalLabelPosition=bottom;labelBackgroundColor=default;verticalAlign=top;aspect=fixed;imageAspect=0;image=https://static-00.iconduck.com/assets.00/rabbitmq-icon-484x512-s9lfaapn.png;" parent="1" vertex="1">
          <mxGeometry x="860" y="530.38" width="56" height="59.24" as="geometry" />
        </mxCell>
        <mxCell id="uw4OTgvuskThHRHjsoGc-79" value="Process&lt;div style=&quot;font-size: 14px;&quot;&gt;Heavy&lt;/div&gt;" style="shape=curlyBracket;whiteSpace=wrap;html=1;rounded=1;flipH=1;labelPosition=right;verticalLabelPosition=middle;align=left;verticalAlign=middle;strokeColor=default;fontFamily=Gloria Hallelujah;fontSize=14;fontColor=default;labelBackgroundColor=default;fillColor=default;strokeWidth=2;fontSource=https%3A%2F%2Ffonts.googleapis.com%2Fcss%3Ffamily%3DGloria%2BHallelujah;" parent="1" vertex="1">
          <mxGeometry x="950" y="660" width="20" height="520" as="geometry" />
        </mxCell>
        <mxCell id="uw4OTgvuskThHRHjsoGc-80" value="Technology&lt;div style=&quot;font-size: 14px;&quot;&gt;Heavy&lt;/div&gt;" style="shape=curlyBracket;whiteSpace=wrap;html=1;rounded=1;flipH=1;labelPosition=right;verticalLabelPosition=middle;align=left;verticalAlign=middle;strokeColor=default;fontFamily=Gloria Hallelujah;fontSize=14;fontColor=default;labelBackgroundColor=default;fillColor=default;strokeWidth=2;fontSource=https%3A%2F%2Ffonts.googleapis.com%2Fcss%3Ffamily%3DGloria%2BHallelujah;" parent="1" vertex="1">
          <mxGeometry x="950" y="210" width="20" height="420" as="geometry" />
        </mxCell>
        <mxCell id="uw4OTgvuskThHRHjsoGc-81" value="" style="shape=image;verticalLabelPosition=bottom;labelBackgroundColor=default;verticalAlign=top;aspect=fixed;imageAspect=0;image=https://upload.wikimedia.org/wikipedia/commons/thumb/3/38/Prometheus_software_logo.svg/2066px-Prometheus_software_logo.svg.png;" parent="1" vertex="1">
          <mxGeometry x="830" y="800" width="60.5" height="60" as="geometry" />
        </mxCell>
        <mxCell id="rtDZ4LokUh9CNXWUBmLv-4" value="" style="shape=image;verticalLabelPosition=bottom;labelBackgroundColor=default;verticalAlign=top;aspect=fixed;imageAspect=0;image=https://cdn-icons-png.flaticon.com/512/9767/9767104.png;" vertex="1" parent="1">
          <mxGeometry x="847" y="1130" width="82" height="82" as="geometry" />
        </mxCell>
        <mxCell id="rtDZ4LokUh9CNXWUBmLv-5" value="" style="shape=image;verticalLabelPosition=bottom;labelBackgroundColor=default;verticalAlign=top;aspect=fixed;imageAspect=0;image=https://cdn-icons-png.flaticon.com/512/9011/9011218.png;" vertex="1" parent="1">
          <mxGeometry x="118" y="830" width="82" height="82" as="geometry" />
        </mxCell>
        <mxCell id="rtDZ4LokUh9CNXWUBmLv-7" value="" style="shape=image;verticalLabelPosition=bottom;labelBackgroundColor=default;verticalAlign=top;aspect=fixed;imageAspect=0;image=https://cdn4.iconfinder.com/data/icons/logos-and-brands/512/144_Gitlab_logo_logos-512.png;" vertex="1" parent="1">
          <mxGeometry x="150" y="330" width="50" height="50" as="geometry" />
        </mxCell>
        <mxCell id="rtDZ4LokUh9CNXWUBmLv-10" value="" style="shape=image;imageAspect=0;aspect=fixed;verticalLabelPosition=bottom;verticalAlign=top;fontFamily=Helvetica;fontSize=11;fontColor=default;labelBackgroundColor=default;image=https://cdn.shopify.com/s/files/1/1300/8977/products/backstage-decal.png?v=1619635979;" vertex="1" parent="1">
          <mxGeometry x="546" y="180" width="64" height="80" as="geometry" />
        </mxCell>
      </root>
    </mxGraphModel>
  </diagram>
</mxfile>
